:SAMPLES-PER-SECOND 30
:FULLY-SPECIFIED
:DEGREES
411
root  -55.5887 37.4676 -15.118 35.4046 -12.6021 0.299408
RightUpLeg  -72.162 -23.5209 29.0001
RightLeg  37.052 -3.8039 -3.34975
RightFoot  -8.73146 0.175727 -10.259
RightToes  0.00048216 0.542163 -0.142577
Spine  64.1606 -5.13111 6.0592
Spine1  7.38791 -0.404055 -5.10723
HEad  -32.49 -1.70443 -2.9873
LeftShoulder1  7.97223 -22.3647 -24.4904
LeftArm  -34.9478 -72.3664 -25.0277
LeftForeArm  4.14165 -16.5457 -3.7188
LeftHand  -0.25398 0.0180481 5.50724
RightShoulder  2.07604 9.38212 8.70752
RightArm  -63.2682 64.5102 -16.8362
RightForeArm  -6.64404 11.3391 5.25087
RightHand  0.440915 10.5755 2.65843
LeftUpLeg  -72.7594 22.4105 -27.1263
LeftLeg  35.2602 -1.92422 -1.09518
LeftFoot  -4.6121 -0.353271 6.48003
LeftToes  1.06248e-005 4.65856e-005 -8.18499e-006
412
root  -55.8909 37.3021 -15.0327 36.3785 -11.9208 0.322998
RightUpLeg  -73.4124 -22.8499 29.5315
RightLeg  38.369 -4.44106 -4.0404
RightFoot  -9.83614 0.0724454 -10.5214
RightToes  0.00048216 0.542163 -0.142577
Spine  64.7454 -5.30406 5.9763
Spine1  7.38538 -0.510838 -5.57636
HEad  -32.7927 -0.726526 -4.15602
LeftShoulder1  7.41848 -22.1759 -22.4684
LeftArm  -38.6622 -73.6807 -22.1076
LeftForeArm  4.12673 -16.0357 -3.45752
LeftHand  -0.25398 0.0180481 5.50724
RightShoulder  2.10476 9.53013 8.75248
RightArm  -66.6913 64.5724 -18.6839
RightForeArm  -7.04302 10.4869 4.75
RightHand  0.560579 10.8291 3.45572
LeftUpLeg  -74.4042 22.1717 -27.3149
LeftLeg  36.5171 -2.37793 -1.51885
LeftFoot  -4.81108 -0.347589 6.59518
LeftToes  1.06248e-005 4.65856e-005 -8.18499e-006
413
root  -56.1755 37.1524 -14.9381 37.4425 -11.4002 0.311142
RightUpLeg  -74.6382 -22.1821 30.1933
RightLeg  39.4378 -4.87076 -4.56604
RightFoot  -10.7307 -0.0141894 -10.8358
RightToes  0.00048216 0.542163 -0.142577
Spine  64.8502 -5.16489 5.72992
Spine1  7.97436 -0.43842 -5.76684
HEad  -33.7197 0.34137 -5.62677
LeftShoulder1  6.97886 -22.1797 -20.6491
LeftArm  -43.8727 -75.1144 -17.8738
LeftForeArm  4.1299 -15.2795 -3.03046
LeftHand  -0.25398 0.0180481 5.50724
RightShoulder  2.06197 9.36462 8.61294
RightArm  -70.2657 64.7389 -20.4891
RightForeArm  -7.60834 10.002 4.18615
RightHand  0.669261 11.0549 4.15972
LeftUpLeg  -76.0835 22.0345 -27.5809
LeftLeg  37.5926 -2.84277 -1.97224
LeftFoot  -4.99531 -0.341433 6.69363
LeftToes  1.06248e-005 4.65856e-005 -8.18499e-006
414
root  -56.4405 37.0227 -14.8322 38.3833 -10.9557 0.381836
RightUpLeg  -75.7415 -21.629 30.7312
RightLeg  40.3902 -5.22905 -5.03969
RightFoot  -11.424 -0.0848166 -11.0541
RightToes  0.00048216 0.542163 -0.142577
Spine  64.9135 -4.97069 5.38894
Spine1  8.52544 -0.404661 -5.92644
HEad  -34.6949 0.948287 -6.40349
LeftShoulder1  6.65246 -22.3844 -19.0668
LeftArm  -49.9 -76.2525 -12.6209
LeftForeArm  3.96678 -14.3996 -2.51205
LeftHand  -0.25398 0.0180481 5.50724
RightShoulder  1.99923 9.10565 8.42524
RightArm  -73.397 64.9122 -21.711
RightForeArm  -8.32926 9.85396 3.64323
RightHand  0.693591 11.2027 4.28462
LeftUpLeg  -77.5764 22.0072 -27.9922
LeftLeg  38.5177 -3.34626 -2.47473
LeftFoot  -5.06957 -0.322419 6.438
LeftToes  1.06248e-005 4.65856e-005 -8.18499e-006
415
root  -56.6526 36.9345 -14.7115 38.9384 -10.3882 0.772034
RightUpLeg  -76.7213 -21.5619 30.9286
RightLeg  41.3918 -5.52473 -5.48989
RightFoot  -12.0456 -0.149942 -11.1662
RightToes  0.00048216 0.542163 -0.142577
Spine  65.3388 -4.96816 5.16409
Spine1  8.59751 -0.568849 -5.91433
HEad  -35.1304 1.07588 -6.73429
LeftShoulder1  6.5713 -22.635 -18.4636
LeftArm  -54.5667 -77.0855 -7.98504
LeftForeArm  3.701 -13.8232 -2.2247
LeftHand  -0.25398 0.0180481 5.50724
RightShoulder  1.9303 8.80465 8.23222
RightArm  -75.0822 64.8654 -22.171
RightForeArm  -8.83726 9.87726 3.29895
RightHand  0.652328 11.4321 3.93183
LeftUpLeg  -78.3948 21.784 -28.5502
LeftLeg  39.1132 -3.7008 -2.84073
LeftFoot  -4.85259 -0.340948 6.52054
LeftToes  1.06248e-005 4.65856e-005 -8.18499e-006
